<svg width="421" height="453" viewBox="0 0 421 453" fill="none" xmlns="http://www.w3.org/2000/svg">
<mask id="path-1-outside-1_2009_219" maskUnits="userSpaceOnUse" x="-31.3926" y="-64.6426" width="467.994" height="584.726" fill="black">
<rect fill="white" x="-31.3926" y="-64.6426" width="467.994" height="584.726"/>
<path fill-rule="evenodd" clip-rule="evenodd" d="M266.053 85.4634L263.156 91.3345C227.198 121.162 206.226 139.312 174.478 173.221L174.527 173.275C157.276 189.572 143.078 200.52 127.447 212.572L127.445 212.574L127.443 212.576L127.441 212.577C117.56 220.196 107.106 228.257 94.9458 238.39L13.0841 303.235L3.40632 308.054L21.3907 344.316L23.074 343.478L33.8481 396.092L43.5953 446.404C43.7475 446.241 43.8992 446.078 44.0507 445.917L44.1691 446.495C44.4142 446 44.6592 445.506 44.9041 445.013C62.0359 427.012 73.3855 423.09 85.6751 418.843C100.654 413.667 117.03 408.007 146.976 375.784L159.984 372.267L169.08 352.968L169.528 352.599L169.559 352.617L169.561 352.573L169.913 352.282L169.59 351.888L173.25 268.598L173.894 267.953L177.364 270.386C177.903 270.764 178.652 270.507 178.849 269.879L181.978 259.849L220.328 221.404C220.744 221.802 221.013 222.049 221.107 222.117C222.221 222.919 244.689 205.858 258.035 191.796L270.669 187.289L270.693 187.317L270.761 187.256L271.008 187.168L270.973 187.068L307.455 154.404L309.92 154.225L322.952 143.472C330.821 138.493 338.924 133.391 347.283 128.13L347.308 128.114L347.311 128.112L347.317 128.109C349.831 126.526 352.368 124.929 354.929 123.316L365.764 125.036L378.876 116.182L396.997 108.465L398.371 103.02L412.417 93.5362L412.575 92.8189L417.115 83.7355L417.324 83.6005L417.234 83.4997L417.275 83.4154C391.778 51.9208 350.306 1.24249 346.93 2.23049C343.827 3.13836 321.799 29.0185 318.244 33.2126L271.776 83.036L266.584 84.9825C266.461 85.0288 266.35 85.0981 266.257 85.186C266.174 85.2653 266.104 85.359 266.053 85.4634Z"/>
</mask>
<path d="M266.053 85.4634L267.846 86.3484L267.847 86.3464L266.053 85.4634ZM263.156 91.3345L264.433 92.8738L264.761 92.6017L264.949 92.2195L263.156 91.3345ZM174.478 173.221L173.018 171.854L171.746 173.213L173.009 174.579L174.478 173.221ZM174.527 173.275L175.901 174.729L177.339 173.37L175.996 171.917L174.527 173.275ZM127.447 212.572L126.226 210.989L126.207 211.003L126.189 211.018L127.447 212.572ZM127.445 212.574L126.187 211.019L126.157 211.043L126.128 211.069L127.445 212.574ZM127.443 212.576L128.701 214.13L128.731 214.106L128.76 214.081L127.443 212.576ZM127.441 212.577L128.662 214.161L128.681 214.147L128.699 214.132L127.441 212.577ZM94.9458 238.39L96.1876 239.958L96.2071 239.943L96.2262 239.927L94.9458 238.39ZM13.0841 303.235L13.9755 305.026L14.1624 304.933L14.326 304.803L13.0841 303.235ZM3.40632 308.054L2.5149 306.263L0.727343 307.153L1.61457 308.942L3.40632 308.054ZM21.3907 344.316L19.599 345.205L20.489 346.999L22.2822 346.106L21.3907 344.316ZM23.074 343.478L25.0333 343.077L24.5114 340.528L22.1825 341.688L23.074 343.478ZM33.8481 396.092L35.8116 395.712L35.8095 395.701L35.8074 395.691L33.8481 396.092ZM43.5953 446.404L41.6318 446.784L42.3793 450.642L45.0584 447.768L43.5953 446.404ZM44.0507 445.917L46.0099 445.515L45.2345 441.733L42.5923 444.548L44.0507 445.917ZM44.1691 446.495L42.2098 446.896L43.3785 452.597L45.9613 447.382L44.1691 446.495ZM44.9041 445.013L43.4554 443.634L43.2473 443.853L43.113 444.123L44.9041 445.013ZM85.6751 418.843L85.0218 416.953L85.0218 416.953L85.6751 418.843ZM146.976 375.784L146.454 373.854L145.901 374.003L145.511 374.423L146.976 375.784ZM159.984 372.267L160.506 374.198L161.399 373.957L161.793 373.12L159.984 372.267ZM169.08 352.968L167.808 351.424L167.462 351.709L167.27 352.115L169.08 352.968ZM169.528 352.599L170.578 350.896L169.361 350.146L168.257 351.054L169.528 352.599ZM169.559 352.617L168.509 354.32L171.387 356.094L171.556 352.717L169.559 352.617ZM169.561 352.573L168.29 351.028L167.607 351.59L167.563 352.473L169.561 352.573ZM169.913 352.282L171.184 353.827L172.725 352.559L171.461 351.015L169.913 352.282ZM169.59 351.888L167.592 351.8L167.559 352.564L168.043 353.155L169.59 351.888ZM173.25 268.598L171.834 267.186L171.286 267.735L171.252 268.51L173.25 268.598ZM173.894 267.953L175.042 266.315L173.665 265.35L172.478 266.541L173.894 267.953ZM177.364 270.386L176.216 272.024L176.216 272.024L177.364 270.386ZM178.849 269.879L180.758 270.476L180.758 270.475L178.849 269.879ZM181.978 259.849L180.562 258.436L180.215 258.784L180.069 259.253L181.978 259.849ZM220.328 221.404L221.711 219.96L220.296 218.605L218.912 219.992L220.328 221.404ZM221.107 222.117L219.937 223.739L219.939 223.741L221.107 222.117ZM258.035 191.796L257.363 189.913L256.913 190.073L256.584 190.42L258.035 191.796ZM270.669 187.289L272.192 185.992L271.297 184.942L269.997 185.406L270.669 187.289ZM270.693 187.317L269.171 188.614L270.508 190.184L272.037 188.799L270.693 187.317ZM270.761 187.256L270.091 185.372L269.714 185.506L269.418 185.774L270.761 187.256ZM271.008 187.168L271.679 189.053L273.565 188.382L272.892 186.496L271.008 187.168ZM270.973 187.068L269.639 185.578L268.637 186.474L269.089 187.74L270.973 187.068ZM307.455 154.404L307.31 152.409L306.629 152.458L306.12 152.914L307.455 154.404ZM309.92 154.225L310.064 156.22L310.701 156.174L311.193 155.768L309.92 154.225ZM322.952 143.472L321.883 141.782L321.777 141.849L321.679 141.929L322.952 143.472ZM347.283 128.13L348.348 129.823L348.367 129.811L348.385 129.799L347.283 128.13ZM347.308 128.114L346.278 126.399L346.241 126.421L346.205 126.445L347.308 128.114ZM347.311 128.112L346.478 126.293L346.377 126.34L346.281 126.397L347.311 128.112ZM347.317 128.109L348.15 129.927L348.271 129.872L348.383 129.801L347.317 128.109ZM354.929 123.316L355.243 121.341L354.5 121.223L353.863 121.624L354.929 123.316ZM365.764 125.036L365.45 127.011L366.229 127.135L366.883 126.693L365.764 125.036ZM378.876 116.182L378.093 114.342L377.916 114.417L377.757 114.525L378.876 116.182ZM396.997 108.465L397.781 110.305L398.694 109.917L398.936 108.954L396.997 108.465ZM398.371 103.02L397.252 101.362L396.618 101.79L396.431 102.531L398.371 103.02ZM412.417 93.5362L413.536 95.1937L414.198 94.7466L414.37 93.9661L412.417 93.5362ZM412.575 92.8189L410.786 91.9246L410.675 92.1466L410.621 92.3889L412.575 92.8189ZM417.115 83.7355L416.031 82.0547L415.571 82.3515L415.326 82.8413L417.115 83.7355ZM417.324 83.6005L418.408 85.2813L420.382 84.0084L418.811 82.2626L417.324 83.6005ZM417.234 83.4997L415.437 82.62L414.843 83.8334L415.747 84.8376L417.234 83.4997ZM417.275 83.4154L419.071 84.2951L419.632 83.149L418.829 82.157L417.275 83.4154ZM346.93 2.23049L346.368 0.310959L346.368 0.311002L346.93 2.23049ZM318.244 33.2126L319.706 34.5767L319.739 34.5421L319.769 34.5059L318.244 33.2126ZM271.776 83.036L272.478 84.9087L272.918 84.7438L273.239 84.4001L271.776 83.036ZM266.584 84.9825L265.882 83.1098L265.879 83.1108L266.584 84.9825ZM266.257 85.186L264.886 83.7299L264.876 83.7393L266.257 85.186ZM264.259 84.5784L261.362 90.4495L264.949 92.2195L267.846 86.3484L264.259 84.5784ZM261.879 89.7951C225.893 119.646 204.849 137.857 173.018 171.854L175.938 174.588C207.604 140.767 228.503 122.678 264.433 92.8738L261.879 89.7951ZM173.009 174.579L173.059 174.632L175.996 171.917L175.946 171.864L173.009 174.579ZM173.154 171.821C155.982 188.043 141.854 198.938 126.226 210.989L128.668 214.156C144.301 202.103 158.569 191.101 175.901 174.729L173.154 171.821ZM126.189 211.018L126.187 211.019L128.703 214.129L128.705 214.127L126.189 211.018ZM126.128 211.069L126.126 211.07L128.76 214.081L128.762 214.079L126.128 211.069ZM126.185 211.021L126.183 211.022L128.699 214.132L128.701 214.13L126.185 211.021ZM126.22 210.993C116.339 218.612 105.858 226.694 93.6654 236.854L96.2262 239.927C108.354 229.82 118.781 221.78 128.662 214.161L126.22 210.993ZM93.7039 236.822L11.8423 301.667L14.326 304.803L96.1876 239.958L93.7039 236.822ZM12.1927 301.445L2.5149 306.263L4.29774 309.844L13.9755 305.026L12.1927 301.445ZM1.61457 308.942L19.599 345.205L23.1825 343.428L5.19807 307.165L1.61457 308.942ZM22.2822 346.106L23.9655 345.268L22.1825 341.688L20.4992 342.526L22.2822 346.106ZM21.1146 343.879L31.8887 396.493L35.8074 395.691L25.0333 343.077L21.1146 343.879ZM31.8846 396.472L41.6318 446.784L45.5588 446.024L35.8116 395.712L31.8846 396.472ZM45.0584 447.768C45.2094 447.606 45.3595 447.445 45.509 447.286L42.5923 444.548C42.4389 444.712 42.2855 444.876 42.1323 445.04L45.0584 447.768ZM42.0914 446.319L42.2098 446.896L46.1283 446.093L46.0099 445.515L42.0914 446.319ZM45.9613 447.382C46.2059 446.888 46.4506 446.395 46.6952 445.903L43.113 444.123C42.8678 444.617 42.6224 445.111 42.3768 445.607L45.9613 447.382ZM46.3528 446.392C54.8128 437.503 61.7858 432.151 68.1054 428.502C74.4349 424.848 80.1764 422.859 86.3283 420.733L85.0218 416.953C78.8842 419.074 72.806 421.17 66.1054 425.038C59.3948 428.913 52.1271 434.523 43.4554 443.634L46.3528 446.392ZM86.3283 420.733C93.8374 418.138 101.86 415.369 111.776 409.15C121.674 402.942 133.386 393.345 148.441 377.146L145.511 374.423C130.619 390.446 119.171 399.79 109.65 405.762C100.146 411.722 92.4921 414.371 85.0218 416.953L86.3283 420.733ZM147.498 377.715L160.506 374.198L159.462 370.337L146.454 373.854L147.498 377.715ZM161.793 373.12L170.889 353.82L167.27 352.115L158.175 371.415L161.793 373.12ZM170.351 354.512L170.799 354.143L168.257 351.054L167.808 351.424L170.351 354.512ZM168.479 354.301L168.509 354.32L170.608 350.915L170.578 350.896L168.479 354.301ZM171.556 352.717L171.558 352.672L167.563 352.473L167.561 352.518L171.556 352.717ZM170.832 354.117L171.184 353.827L168.642 350.738L168.29 351.028L170.832 354.117ZM171.461 351.015L171.137 350.621L168.043 353.155L168.366 353.55L171.461 351.015ZM171.588 351.976L175.249 268.686L171.252 268.51L167.592 351.8L171.588 351.976ZM174.667 270.011L175.31 269.365L172.478 266.541L171.834 267.186L174.667 270.011ZM172.746 269.591L176.216 272.024L178.512 268.748L175.042 266.315L172.746 269.591ZM176.216 272.024C177.867 273.181 180.158 272.392 180.758 270.476L176.94 269.282C177.146 268.623 177.938 268.346 178.512 268.748L176.216 272.024ZM180.758 270.475L183.887 260.444L180.069 259.253L176.94 269.283L180.758 270.475ZM183.394 261.261L221.744 222.817L218.912 219.992L180.562 258.436L183.394 261.261ZM218.945 222.849C219.304 223.192 219.7 223.568 219.937 223.739L222.277 220.495C222.33 220.533 222.351 220.554 222.314 220.522C222.288 220.5 222.248 220.463 222.19 220.41C222.074 220.304 221.915 220.154 221.711 219.96L218.945 222.849ZM219.939 223.741C220.604 224.219 221.304 224.152 221.515 224.126C221.809 224.09 222.069 224.007 222.25 223.94C222.625 223.802 223.036 223.593 223.441 223.367C224.27 222.904 225.352 222.207 226.606 221.341C229.128 219.6 232.497 217.073 236.231 214.094C243.694 208.141 252.725 200.296 259.486 193.173L256.584 190.42C249.999 197.358 241.123 205.075 233.737 210.967C230.046 213.911 226.755 216.378 224.334 218.049C223.116 218.89 222.156 219.504 221.491 219.875C221.148 220.066 220.95 220.156 220.867 220.187C220.819 220.204 220.888 220.173 221.031 220.155C221.091 220.148 221.679 220.065 222.275 220.494L219.939 223.741ZM258.707 193.68L271.341 189.173L269.997 185.406L257.363 189.913L258.707 193.68ZM269.147 188.586L269.171 188.614L272.216 186.021L272.192 185.992L269.147 188.586ZM272.037 188.799L272.104 188.738L269.418 185.774L269.35 185.836L272.037 188.799ZM271.431 189.141L271.679 189.053L270.338 185.284L270.091 185.372L271.431 189.141ZM272.892 186.496L272.856 186.396L269.089 187.74L269.125 187.841L272.892 186.496ZM272.307 188.558L308.789 155.894L306.12 152.914L269.639 185.578L272.307 188.558ZM307.599 156.399L310.064 156.22L309.776 152.231L307.31 152.409L307.599 156.399ZM311.193 155.768L324.225 145.014L321.679 141.929L308.647 152.683L311.193 155.768ZM324.022 145.162C331.888 140.184 339.99 135.084 348.348 129.823L346.217 126.438C337.859 131.698 329.754 136.801 321.883 141.782L324.022 145.162ZM348.385 129.799L348.41 129.782L346.205 126.445L346.18 126.462L348.385 129.799ZM348.338 129.828L348.341 129.826L346.281 126.397L346.278 126.399L348.338 129.828ZM348.145 129.93L348.15 129.927L346.484 126.291L346.478 126.293L348.145 129.93ZM348.383 129.801C350.896 128.219 353.434 126.621 355.995 125.008L353.863 121.624C351.302 123.237 348.767 124.833 346.251 126.417L348.383 129.801ZM354.616 125.291L365.45 127.011L366.077 123.061L355.243 121.341L354.616 125.291ZM366.883 126.693L379.996 117.84L377.757 114.525L364.644 123.378L366.883 126.693ZM379.66 118.022L397.781 110.305L396.214 106.625L378.093 114.342L379.66 118.022ZM398.936 108.954L400.31 103.509L396.431 102.531L395.058 107.976L398.936 108.954ZM399.49 104.678L413.536 95.1937L411.298 91.8786L397.252 101.362L399.49 104.678ZM414.37 93.9661L414.528 93.2488L410.621 92.3889L410.463 93.1062L414.37 93.9661ZM414.364 93.7131L418.904 84.6297L415.326 82.8413L410.786 91.9246L414.364 93.7131ZM418.199 85.4163L418.408 85.2813L416.24 81.9198L416.031 82.0547L418.199 85.4163ZM418.811 82.2626L418.72 82.1618L415.747 84.8376L415.838 84.9385L418.811 82.2626ZM419.03 84.3794L419.071 84.2951L415.479 82.5357L415.437 82.62L419.03 84.3794ZM418.829 82.157C406.08 66.4087 389.326 45.8501 375.333 29.3485C368.339 21.1012 362.017 13.8456 357.223 8.70567C354.831 6.1415 352.786 4.06811 351.212 2.65513C350.432 1.95511 349.713 1.36748 349.092 0.960456C348.785 0.759419 348.436 0.558001 348.068 0.417944C347.761 0.301281 347.109 0.0941688 346.368 0.310959L347.491 4.15001C347.205 4.23387 346.972 4.22032 346.85 4.20409C346.727 4.18758 346.654 4.15965 346.644 4.15618C346.633 4.15188 346.711 4.18279 346.9 4.30636C347.27 4.54852 347.813 4.97913 348.54 5.6318C349.98 6.92421 351.928 8.89402 354.298 11.4341C359.026 16.5027 365.298 23.6998 372.282 31.9355C386.243 48.3996 402.973 68.9275 415.72 84.6739L418.829 82.157ZM346.368 0.311002C345.821 0.47089 345.318 0.805159 344.964 1.06113C344.556 1.35555 344.104 1.7298 343.626 2.15332C342.667 3.00308 341.499 4.14446 340.207 5.46763C337.619 8.1195 334.44 11.5971 331.264 15.158C324.908 22.285 318.499 29.819 316.718 31.9193L319.769 34.5059C321.544 32.4121 327.927 24.909 334.249 17.8204C337.413 14.2735 340.545 10.8488 343.07 8.26169C344.335 6.96539 345.425 5.90316 346.278 5.14745C346.706 4.76824 347.049 4.48928 347.307 4.3028C347.618 4.07788 347.65 4.10357 347.491 4.14997L346.368 0.311002ZM316.781 31.8485L270.314 81.6719L273.239 84.4001L319.706 34.5767L316.781 31.8485ZM271.074 81.1632L265.882 83.1098L267.286 86.8553L272.478 84.9087L271.074 81.1632ZM265.879 83.1108C265.509 83.2502 265.171 83.4609 264.886 83.7299L267.628 86.642C267.529 86.7354 267.413 86.8073 267.288 86.8542L265.879 83.1108ZM264.876 83.7393C264.628 83.9756 264.416 84.2587 264.258 84.5804L267.847 86.3464C267.792 86.4594 267.719 86.555 267.638 86.6326L264.876 83.7393Z" fill="#FFC500" mask="url(#path-1-outside-1_2009_219)"/>
</svg>
