<svg width="24" height="24" viewBox="0 0 24 24" fill="none" xmlns="http://www.w3.org/2000/svg">
<path d="M17.4998 22C16.4178 22.0125 15.3922 21.5181 14.7281 20.6637C14.064 19.8094 13.8378 18.6935 14.1168 17.648L7.85685 14.07C6.77513 15.0611 5.18953 15.2708 3.88733 14.5951C2.58514 13.9194 1.84372 12.5023 2.03121 11.0472C2.21871 9.5922 3.29518 8.40926 4.72612 8.08577C6.15707 7.76227 7.6377 8.36714 8.43285 9.60002L14.1158 6.35102C14.0423 6.07321 14.0034 5.78738 13.9998 5.50002C13.9855 3.82674 15.1476 2.37316 16.7831 2.01884C18.4185 1.66452 20.078 2.50676 20.7575 4.03594C21.437 5.56511 20.9498 7.36125 19.5908 8.33753C18.2318 9.31381 16.3741 9.20211 15.1418 8.07002L8.99085 11.585C8.98476 11.8443 8.94851 12.1021 8.88285 12.353L15.1418 15.93C16.2941 14.8726 18.0086 14.7093 19.3397 15.5303C20.6708 16.3514 21.2945 17.9568 20.8667 19.461C20.4389 20.9653 19.0638 22.0023 17.4998 22ZM17.4998 17C16.6714 17 15.9998 17.6716 15.9998 18.5C15.9998 19.3284 16.6714 20 17.4998 20C18.3283 20 18.9998 19.3284 18.9998 18.5C18.9998 17.6716 18.3283 17 17.4998 17ZM5.49985 10C4.67142 10 3.99985 10.6716 3.99985 11.5C3.99985 12.3284 4.67142 13 5.49985 13C6.32827 13 6.99985 12.3284 6.99985 11.5C6.99985 10.6716 6.32827 10 5.49985 10ZM17.4998 4.00002C16.6714 4.00002 15.9998 4.67159 15.9998 5.50002C15.9998 6.32845 16.6714 7.00002 17.4998 7.00002C18.3283 7.00002 18.9998 6.32845 18.9998 5.50002C18.9998 4.67159 18.3283 4.00002 17.4998 4.00002Z" fill="white"/>
</svg>
